<?xml version="1.0" standalone="no"?>
<!DOCTYPE svg PUBLIC "-//W3C//DTD SVG 20010904//EN"
 "http://www.w3.org/TR/2001/REC-SVG-20010904/DTD/svg10.dtd">
<svg version="1.0" xmlns="http://www.w3.org/2000/svg"
 width="153.000000pt" height="144.000000pt" viewBox="0 0 153.000000 144.000000"
 preserveAspectRatio="xMidYMid meet">

<g transform="translate(0.000000,144.000000) scale(0.100000,-0.100000)"
fill="#000000" stroke="none">
<path d="M607 1282 l-147 -147 50 -50 50 -49 150 149 150 150 -47 47 c-26 27
-50 48 -53 48 -3 0 -72 -66 -153 -148z"/>
<path d="M907 1182 l-247 -247 353 -353 352 -352 50 50 50 50 -300 300 -300
300 198 198 c108 108 197 201 197 207 0 13 -82 95 -95 95 -5 0 -121 -111 -258
-248z"/>
<path d="M324 1392 c-37 -24 -39 -93 -4 -112 30 -16 75 -12 93 8 22 25 21 75
-1 95 -19 17 -68 22 -88 9z"/>
<path d="M107 1182 l-47 -47 300 -300 300 -300 -200 -200 -200 -200 48 -48
c26 -26 52 -47 57 -47 6 0 120 110 255 245 l245 245 -350 350 c-192 193 -352
350 -355 350 -3 0 -27 -21 -53 -48z"/>
<path d="M1339 1198 c-36 -12 -54 -53 -39 -88 29 -70 130 -51 130 25 0 49 -44
79 -91 63z"/>
<path d="M1112 987 c-23 -23 -42 -47 -42 -53 0 -13 282 -294 296 -294 5 0 30
20 54 45 l44 45 -149 150 c-82 83 -152 150 -155 150 -3 0 -25 -19 -48 -43z"/>
<path d="M107 782 l-47 -47 150 -150 150 -149 50 49 50 50 -147 147 c-81 82
-150 148 -153 148 -3 0 -27 -21 -53 -48z"/>
<path d="M812 287 c-78 -78 -142 -147 -142 -153 0 -5 20 -30 45 -54 l45 -44
150 149 150 150 -47 47 c-26 27 -50 48 -53 48 -3 0 -69 -64 -148 -143z"/>
<path d="M110 380 c-25 -25 -26 -61 -3 -88 60 -71 161 10 107 86 -20 29 -76
30 -104 2z"/>
<path d="M1124 192 c-37 -24 -39 -93 -4 -112 30 -16 75 -12 93 8 22 25 21 75
-1 95 -19 17 -68 22 -88 9z"/>
</g>
</svg>
